<?xml version="1.0" standalone="no"?>
<svg xmlns="http://www.w3.org/2000/svg" xmlns:xlink="http://www.w3.org/1999/xlink" style="isolation:isolate"
     viewBox="0 0 400 400" width="400" height="400">
    <g id="null">
        <path d="M 272.51 187.675 L 214.292 245.892 L 179.152 210.752 L 193.051 196.853 L 214.292 218.095 L 258.611 173.776 L 272.51 187.675 Z M 318.009 81.992 C 332.432 81.992 344.233 93.792 344.233 108.216 L 344.233 265.56 C 344.233 279.983 332.432 291.784 318.009 291.784 L 134.44 291.784 C 119.885 291.784 108.216 279.983 108.216 265.56 L 108.347 108.216 C 108.347 93.792 119.885 81.992 134.44 81.992 L 147.552 81.992 L 147.552 55.767 L 173.776 55.767 L 173.776 81.992 L 278.672 81.992 L 278.672 55.767 L 304.896 55.767 L 304.896 81.992 L 318.009 81.992 Z M 318.01 265.561 L 318.01 147.553 L 134.441 147.553 L 134.441 265.561 L 318.01 265.561 Z"
              style="stroke:none;fill:#41B883;stroke-miterlimit:10;"/>
        <path d=" M 81.991 318.008 L 265.56 318.008 L 265.56 344.233 L 81.991 344.233 C 67.437 344.233 55.767 332.432 55.767 318.008 L 55.899 160.664 L 81.991 160.664 L 81.991 318.008 Z "
              fill="rgb(53,73,94)"/>
    </g>
</svg>